<svg width="50" height="50" viewBox="0 0 50 50" fill="none" xmlns="http://www.w3.org/2000/svg">
<path d="M37.7877 36.4496C38.3051 35.9163 37.8052 35.0697 37.064 35.127C36.6143 35.1617 36.1599 35.1794 35.7013 35.1794C26.0738 35.1794 18.2691 27.3809 18.2691 17.7609C18.2691 14.8021 19.0074 12.0156 20.31 9.57529C20.6604 8.91888 20.0829 8.12157 19.3866 8.38504C12.8963 10.8409 8.28125 17.1176 8.28125 24.473C8.28125 33.9688 15.973 41.6667 25.4612 41.6667C30.2967 41.6667 34.6657 39.6674 37.7877 36.4496Z" fill="#303030" fill-opacity="0.7"/>
<path fill-rule="evenodd" clip-rule="evenodd" d="M30.7166 13.493C30.6332 13.3741 30.5253 13.198 30.1991 12.7414C30.2059 12.7482 28.6377 10.7335 28.6377 10.7335C28.4447 10.4856 28.4935 10.4443 28.7446 10.6396C28.7446 10.6396 30.745 12.1954 30.745 12.1954C31.1937 12.5159 31.3742 12.6285 31.4948 12.7129C31.6137 12.6295 31.7897 12.5216 32.2464 12.1954C32.2396 12.2022 34.2543 10.634 34.2543 10.634C34.5022 10.4411 34.5435 10.4899 34.3482 10.741C34.3482 10.741 32.7923 12.7414 32.7923 12.7414C32.4719 13.19 32.3593 13.3706 32.2748 13.4911C32.3582 13.6101 32.4662 13.7861 32.7923 14.2427C32.7855 14.2359 34.3538 16.2506 34.3538 16.2506C34.5467 16.4985 34.4979 16.5399 34.2468 16.3446C34.2468 16.3446 32.2464 14.7887 32.2464 14.7887C31.7978 14.4682 31.6172 14.3557 31.4967 14.2712C31.3777 14.3546 31.2017 14.4625 30.745 14.7887C30.7518 14.7819 28.7372 16.3501 28.7372 16.3501C28.4893 16.5431 28.4479 16.4942 28.6432 16.2431C28.6432 16.2431 30.1991 14.2427 30.1991 14.2427C30.5195 13.7941 30.6321 13.6136 30.7166 13.493V13.493Z" fill="white"/>
<path fill-rule="evenodd" clip-rule="evenodd" d="M39.6205 24.0543C39.6237 24.0575 38.8927 23.1184 38.8927 23.1184C38.802 23.0019 38.8244 22.982 38.9416 23.0732C38.9416 23.0732 39.8754 23.7995 39.8754 23.7995C40.0848 23.9491 40.1691 24.0016 40.2254 24.0411C40.2809 24.0021 40.3631 23.9518 40.5762 23.7995C40.573 23.8027 41.5122 23.0716 41.5122 23.0716C41.6286 22.981 41.6485 23.0033 41.5574 23.1205C41.5574 23.1205 40.8311 24.0543 40.8311 24.0543C40.6815 24.2638 40.6289 24.348 40.5895 24.4043C40.6284 24.4598 40.6788 24.542 40.8311 24.7552C40.8279 24.752 41.5589 25.6911 41.5589 25.6911C41.6496 25.8076 41.6272 25.8275 41.51 25.7363C41.51 25.7363 40.5762 25.01 40.5762 25.01C40.3668 24.8604 40.2825 24.8079 40.2262 24.7685C40.1707 24.8074 40.0886 24.8578 39.8754 25.01C39.8786 25.0069 38.9394 25.7379 38.9394 25.7379C38.823 25.8285 38.8031 25.8062 38.8943 25.689C38.8943 25.689 39.6205 24.7552 39.6205 24.7552C39.7701 24.5458 39.8227 24.4615 39.8621 24.4052C39.8232 24.3497 39.7728 24.2675 39.6205 24.0543Z" fill="white"/>
</svg>
