<svg width="50" height="50" viewBox="0 0 50 50" fill="none" xmlns="http://www.w3.org/2000/svg">
<path d="M40.6185 20.3331C40.6228 20.2028 40.625 20.0719 40.625 19.9405C40.625 13.5301 35.4483 8.33337 29.0625 8.33337C23.9969 8.33337 19.692 11.6035 18.1287 16.1556C17.0059 15.5675 15.7291 15.2349 14.375 15.2349C9.88769 15.2349 6.25 18.8866 6.25 23.3913C6.25 27.8959 9.88769 31.5477 14.375 31.5477L29.0625 31.5477C29.0677 31.5477 29.0729 31.5477 29.0781 31.5477H37.8125C41.0917 31.5477 43.75 28.8791 43.75 25.5872C43.75 23.3143 42.4826 21.3384 40.6185 20.3331Z" fill="white"/>
<path fill-rule="evenodd" clip-rule="evenodd" d="M11.875 34.375C11.875 33.7997 12.3414 33.3334 12.9167 33.3334H36.875C37.4503 33.3334 37.9167 33.7997 37.9167 34.375C37.9167 34.9503 37.4503 35.4167 36.875 35.4167H12.9167C12.3414 35.4167 11.875 34.9503 11.875 34.375ZM11.875 38.5417C11.875 37.9664 12.3414 37.5 12.9167 37.5H36.875C37.4503 37.5 37.9167 37.9664 37.9167 38.5417C37.9167 39.117 37.4503 39.5834 36.875 39.5834H12.9167C12.3414 39.5834 11.875 39.117 11.875 38.5417ZM12.9167 41.6667C12.3414 41.6667 11.875 42.1331 11.875 42.7084C11.875 43.2837 12.3414 43.75 12.9167 43.75H36.875C37.4503 43.75 37.9167 43.2837 37.9167 42.7084C37.9167 42.1331 37.4503 41.6667 36.875 41.6667H12.9167Z" fill="black" fill-opacity="0.4"/>
</svg>
