<svg width="50" height="50" viewBox="0 0 50 50" fill="none" xmlns="http://www.w3.org/2000/svg">
<path d="M40.6185 20.4445C40.6228 20.3129 40.625 20.1807 40.625 20.0481C40.625 13.576 35.4483 8.32935 29.0625 8.32935C23.9969 8.32935 19.692 11.631 18.1287 16.2268C17.0059 15.633 15.7291 15.2972 14.375 15.2972C9.88769 15.2972 6.25 18.9841 6.25 23.532C6.25 28.08 9.88769 31.7668 14.375 31.7668L29.0625 31.7668C29.0677 31.7668 29.0729 31.7668 29.0781 31.7668H37.8125C41.0917 31.7668 43.75 29.0726 43.75 25.7491C43.75 23.4543 42.4826 21.4595 40.6185 20.4445Z" fill="white"/>
<path fill-rule="evenodd" clip-rule="evenodd" d="M36.8257 34.0624C36.2785 33.8846 35.6909 34.184 35.5131 34.7312L32.8215 43.0151C32.6437 43.5622 32.9431 44.1499 33.4903 44.3277C34.0374 44.5055 34.6251 44.206 34.8028 43.6589L37.4944 35.3749C37.6722 34.8278 37.3728 34.2401 36.8257 34.0624ZM20.1459 34.0624C19.5987 33.8846 19.0111 34.184 18.8333 34.7312L15.284 45.6548C15.1062 46.2019 15.4056 46.7896 15.9528 46.9673C16.4999 47.1451 17.0876 46.8457 17.2654 46.2986L20.8147 35.375C20.9924 34.8278 20.693 34.2402 20.1459 34.0624ZM32.6833 34.0624C32.1362 33.8846 31.5485 34.184 31.3707 34.7312L27.8214 45.6548C27.6437 46.2019 27.9431 46.7896 28.4902 46.9673C29.0374 47.1451 29.625 46.8457 29.8028 46.2986L33.3521 35.375C33.5299 34.8278 33.2304 34.2402 32.6833 34.0624ZM23.0275 34.7312C23.2053 34.184 23.793 33.8846 24.3401 34.0624C24.8872 34.2402 25.1867 34.8278 25.0089 35.375L22.3173 43.6589C22.1395 44.206 21.5518 44.5055 21.0047 44.3277C20.4576 44.1499 20.1581 43.5623 20.3359 43.0151L23.0275 34.7312ZM14.6391 34.7312C14.8169 34.184 15.4045 33.8846 15.9517 34.0624C16.4988 34.2402 16.7983 34.8278 16.6205 35.375L14.7865 41.0193C14.6088 41.5664 14.0211 41.8658 13.474 41.688C12.9268 41.5103 12.6274 40.9226 12.8052 40.3755L14.6391 34.7312ZM28.5341 34.0624C27.9869 33.8846 27.3993 34.184 27.2215 34.7312L25.3876 40.3755C25.2098 40.9226 25.5092 41.5103 26.0563 41.688C26.6035 41.8658 27.1911 41.5664 27.3689 41.0193L29.2029 35.375C29.3806 34.8278 29.0812 34.2402 28.5341 34.0624Z" fill="#B4F5F2"/>
</svg>
