<svg width="50" height="50" viewBox="0 0 50 50" fill="none" xmlns="http://www.w3.org/2000/svg">
<path d="M49.7764 25.2026C50.3215 24.7245 49.7949 23.9656 49.0141 24.017C48.5404 24.0481 48.0617 24.064 47.5787 24.064C37.437 24.064 29.2156 17.0736 29.2156 8.45054C29.2156 5.79835 29.9933 3.30062 31.3654 1.11322C31.7345 0.524834 31.1262 -0.189856 30.3927 0.0463101C23.5559 2.24764 18.6943 7.87388 18.6943 14.4671C18.6943 22.9789 26.7968 29.879 36.7917 29.879C41.8855 29.879 46.4877 28.0869 49.7764 25.2026Z" fill="#303030" fill-opacity="0.7"/>
<path d="M36.2039 26.1475C36.2084 26.0295 36.2107 25.9111 36.2107 25.7922C36.2107 19.9908 30.7575 15.2878 24.0307 15.2878C18.6946 15.2878 14.1599 18.2473 12.513 22.3669C11.3303 21.8346 9.98534 21.5337 8.55889 21.5337C3.83195 21.5337 0 24.8384 0 28.9151C0 32.9917 3.83195 36.2965 8.55889 36.2965L24.0307 36.2965C24.0362 36.2965 24.0417 36.2965 24.0471 36.2965H33.248C36.7023 36.2965 39.5025 33.8815 39.5025 30.9024C39.5025 28.8454 38.1675 27.0573 36.2039 26.1475Z" fill="white"/>
<path fill-rule="evenodd" clip-rule="evenodd" d="M17.6278 39.0772C17.8411 38.5185 18.4812 38.1949 19.0576 38.3542C19.6339 38.5136 19.9282 39.0956 19.7149 39.6543L16.9739 46.8328C16.7606 47.3914 16.1204 47.7151 15.5441 47.5557C14.9677 47.3964 14.6734 46.8143 14.8867 46.2557L17.6278 39.0772ZM27.8457 38.3542C27.2693 38.1949 26.6292 38.5186 26.4158 39.0772L22.7713 48.6218C22.558 49.1804 22.8523 49.7625 23.4287 49.9218C24.005 50.0812 24.6452 49.7575 24.8585 49.1989L28.503 39.6543C28.7163 39.0956 28.422 38.5136 27.8457 38.3542ZM14.6386 38.3542C14.0623 38.1949 13.4221 38.5186 13.2088 39.0772L9.56429 48.6218C9.35098 49.1804 9.64528 49.7625 10.2216 49.9218C10.798 50.0812 11.4382 49.7575 11.6515 49.1989L15.296 39.6543C15.5093 39.0956 15.215 38.5136 14.6386 38.3542ZM32.2089 38.3542C31.6326 38.1949 30.9924 38.5185 30.7791 39.0772L28.0381 46.2557C27.8248 46.8143 28.1191 47.3964 28.6954 47.5557C29.2718 47.7151 29.9119 47.3914 30.1253 46.8328L32.8663 39.6543C33.0796 39.0956 32.7853 38.5136 32.2089 38.3542ZM8.79084 39.0772C9.00415 38.5186 9.64431 38.1949 10.2207 38.3542C10.797 38.5136 11.0913 39.0956 10.878 39.6543L9.04045 44.4667C8.82713 45.0253 8.18698 45.349 7.61062 45.1896C7.03427 45.0303 6.73996 44.4482 6.95327 43.8896L8.79084 39.0772ZM23.4746 38.3542C22.8982 38.1949 22.2581 38.5185 22.0447 39.0772L20.2072 43.8896C19.9939 44.4482 20.2882 45.0303 20.8645 45.1896C21.4409 45.349 22.081 45.0253 22.2944 44.4667L24.1319 39.6543C24.3452 39.0956 24.0509 38.5136 23.4746 38.3542Z" fill="#B4F5F2"/>
</svg>
