<svg width="50" height="50" viewBox="0 0 50 50" fill="none" xmlns="http://www.w3.org/2000/svg">
<g clip-path="url(#clip0_106_219)">
<path fill-rule="evenodd" clip-rule="evenodd" d="M25 43.125C35.0102 43.125 43.125 35.0102 43.125 25C43.125 14.9898 35.0102 6.875 25 6.875C14.9898 6.875 6.875 14.9898 6.875 25C6.875 35.0102 14.9898 43.125 25 43.125ZM43.75 25C43.75 35.3553 35.3553 43.75 25 43.75C14.6447 43.75 6.25 35.3553 6.25 25C6.25 14.6447 14.6447 6.25 25 6.25C35.3553 6.25 43.75 14.6447 43.75 25Z" fill="#FFF308" fill-opacity="0.2"/>
<path fill-rule="evenodd" clip-rule="evenodd" d="M24.8955 40.625C33.5825 40.625 40.6247 33.5829 40.6247 24.8959C40.6247 16.2089 33.5825 9.16671 24.8955 9.16671C16.2085 9.16671 9.16634 16.2089 9.16634 24.8959C9.16634 33.5829 16.2085 40.625 24.8955 40.625ZM41.458 24.8959C41.458 34.0431 34.0427 41.4584 24.8955 41.4584C15.7483 41.4584 8.33301 34.0431 8.33301 24.8959C8.33301 15.7487 15.7483 8.33337 24.8955 8.33337C34.0427 8.33337 41.458 15.7487 41.458 24.8959Z" fill="#FFF308" fill-opacity="0.6"/>
<path fill-rule="evenodd" clip-rule="evenodd" d="M24.8955 38.9584C32.662 38.9584 38.958 32.6624 38.958 24.8959C38.958 17.1294 32.662 10.8334 24.8955 10.8334C17.129 10.8334 10.833 17.1294 10.833 24.8959C10.833 32.6624 17.129 38.9584 24.8955 38.9584Z" fill="#FFEC65"/>
</g>
<path d="M43.5717 19.0318C43.5748 18.9382 43.5764 18.8443 43.5764 18.75C43.5764 14.1476 39.8377 10.4166 35.2257 10.4166C31.5672 10.4166 28.4581 12.7644 27.329 16.0326C26.5181 15.6103 25.596 15.3716 24.6181 15.3716C21.3772 15.3716 18.75 17.9933 18.75 21.2274C18.75 24.4615 21.3772 27.0833 24.6181 27.0833L35.2369 27.0833H41.5451C43.9134 27.0833 45.8333 25.1674 45.8333 22.804C45.8333 21.1721 44.918 19.7536 43.5717 19.0318Z" fill="white"/>
<path d="M19.4419 33.8748C19.4438 33.8169 19.4448 33.7587 19.4448 33.7004C19.4448 30.8513 17.144 28.5416 14.3059 28.5416C12.0545 28.5416 10.1412 29.995 9.4464 32.0182C8.94739 31.7568 8.37994 31.609 7.77811 31.609C5.78374 31.609 4.16699 33.232 4.16699 35.234C4.16699 37.2361 5.78374 38.8591 7.77811 38.8591L14.3128 38.8591H18.1948C19.6522 38.8591 20.8337 37.6731 20.8337 36.21C20.8337 35.1998 20.2704 34.3217 19.4419 33.8748Z" fill="white"/>
<defs>
<clipPath id="clip0_106_219">
<rect width="37.5" height="37.5" fill="white" transform="translate(6.25 6.25)"/>
</clipPath>
</defs>
</svg>
