<svg width="50" height="50" viewBox="0 0 50 50" fill="none" xmlns="http://www.w3.org/2000/svg">
<path d="M45.8247 15.6569C45.8305 15.4869 45.8334 15.3161 45.8334 15.1447C45.8334 6.78051 38.9311 0 30.4167 0C23.6625 0 17.9227 4.26682 15.8382 10.2063C14.3412 9.43884 12.6388 9.00495 10.8333 9.00495C4.85025 9.00495 0 13.7696 0 19.6472C0 25.5247 4.85025 30.2894 10.8333 30.2894L30.4167 30.2894C30.4236 30.2894 30.4305 30.2894 30.4374 30.2894H42.0833C46.4556 30.2894 50 26.8075 50 22.5124C50 19.5467 48.3101 16.9687 45.8247 15.6569Z" fill="white"/>
<path fill-rule="evenodd" clip-rule="evenodd" d="M35.2452 33.2561C34.5156 33.0263 33.7272 33.428 33.4841 34.1532L28.7736 48.2047C28.5305 48.9299 28.9249 49.704 29.6544 49.9338C30.3839 50.1635 31.1724 49.7619 31.4155 49.0367L36.1259 34.9851C36.369 34.26 35.9747 33.4858 35.2452 33.2561ZM18.5284 33.2561C17.7989 33.0263 17.0104 33.428 16.7673 34.1532L12.0569 48.2047C11.8138 48.9299 12.2081 49.704 12.9376 49.9338C13.6672 50.1635 14.4556 49.7619 14.6987 49.0367L19.4091 34.9851C19.6522 34.26 19.2579 33.4858 18.5284 33.2561ZM22.3596 34.1532C22.6027 33.428 23.3912 33.0263 24.1207 33.2561C24.8502 33.4858 25.2446 34.26 25.0015 34.9851L21.4346 45.6254C21.1915 46.3506 20.403 46.7522 19.6735 46.5224C18.944 46.2927 18.5497 45.5186 18.7928 44.7934L22.3596 34.1532ZM40.7682 33.2561C40.0387 33.0263 39.2502 33.428 39.0071 34.1532L35.4403 44.7934C35.1972 45.5186 35.5915 46.2927 36.321 46.5224C37.0505 46.7522 37.839 46.3506 38.0821 45.6254L41.6489 34.9851C41.892 34.26 41.4977 33.4858 40.7682 33.2561ZM11.1753 34.1532C11.4184 33.428 12.2068 33.0263 12.9363 33.2561C13.6659 33.4858 14.0602 34.26 13.8171 34.9851L11.3938 42.214C11.1507 42.9392 10.3622 43.3408 9.63271 43.1111C8.90319 42.8813 8.50886 42.1072 8.75196 41.382L11.1753 34.1532ZM29.7128 33.2561C28.9833 33.0263 28.1948 33.428 27.9517 34.1532L25.5284 41.382C25.2853 42.1072 25.6796 42.8813 26.4092 43.1111C27.1387 43.3408 27.9271 42.9392 28.1702 42.214L30.5935 34.9851C30.8366 34.26 30.4423 33.4858 29.7128 33.2561Z" fill="#B4F5F2"/>
</svg>
