<svg width="50" height="42" viewBox="0 0 50 42" fill="none" xmlns="http://www.w3.org/2000/svg">
<path fill-rule="evenodd" clip-rule="evenodd" d="M45.8334 15.4762C45.8334 15.6514 45.8305 15.8259 45.8247 15.9996C48.3101 17.3401 50 19.9745 50 23.0051C50 27.3943 46.4556 30.9524 42.0833 30.9524H30.4374L30.4167 30.9524H30.1014C30.3122 30.8058 31.6306 29.8894 31.978 29.6599C32.6511 30.1205 33.5563 30.1849 34.3104 29.7507C35.0742 29.3109 35.4713 28.48 35.3946 27.6573C35.8387 27.3967 35.8524 27.4233 35.8524 27.4233C36.8963 26.8223 37.2545 25.487 36.651 24.4444C36.0478 23.4024 34.7106 23.0427 33.665 23.6448C33.665 23.6448 33.6161 23.6826 33.1916 23.8943C32.5199 23.4423 31.622 23.3817 30.873 23.8129C30.1152 24.2493 29.7183 25.0708 29.7871 25.8872C29.3981 26.1194 27.743 27.124 27.743 27.124C27.743 27.124 27.7474 24.9843 27.7661 24.6907C28.4928 24.3359 28.9929 23.5916 28.9929 22.7303C28.9929 21.8588 28.4796 21.1062 27.738 20.7568C27.7488 20.3743 27.743 20.2348 27.743 20.2348C27.743 19.0326 26.7626 18.0555 25.5556 18.0555C24.3491 18.0555 23.3682 19.0307 23.3682 20.2348C23.3682 20.2348 23.3736 20.2807 23.3701 20.7579C22.6299 21.1077 22.1182 21.8592 22.1182 22.7303C22.1182 23.6047 22.635 24.3594 23.3806 24.7073C23.3602 25.2802 23.3682 27.124 23.3682 27.124C23.3682 27.124 21.7365 26.1633 21.3255 25.8724C21.3887 25.0609 20.9921 24.2471 20.2381 23.8129C19.4866 23.3802 18.5836 23.4434 17.9109 23.9006C17.4861 23.6869 17.4462 23.6448 17.4462 23.6448C16.4023 23.0437 15.0636 23.4019 14.4601 24.4444C13.8569 25.4865 14.2132 26.8213 15.2588 27.4233C15.2588 27.4233 15.358 27.4231 15.715 27.6717C15.6439 28.4897 16.0408 29.3131 16.8008 29.7507C17.558 30.1868 18.469 30.1193 19.1433 29.6526C19.3504 29.8195 21.0304 30.8002 21.2915 30.9524L10.8333 30.9524C4.85025 30.9524 0 26.0834 0 20.0772C0 14.071 4.85025 9.20205 10.8333 9.20205C12.6389 9.20205 14.3412 9.64544 15.8382 10.4297C17.9227 4.36022 23.6625 0 30.4167 0C38.9311 0 45.8334 6.92893 45.8334 15.4762Z" fill="white"/>
<path fill-rule="evenodd" clip-rule="evenodd" d="M24.6477 37.7413V23.8658H24.346C23.8439 23.8658 23.4369 23.4596 23.4369 22.9609C23.4369 22.4611 23.8432 22.0559 24.346 22.0559H24.6477V20.5455C24.6477 20.047 25.0553 19.6428 25.5558 19.6428C26.0573 19.6428 26.4639 20.0493 26.4639 20.5455V22.0559H26.7656C27.2677 22.0559 27.6747 22.4621 27.6747 22.9609C27.6747 23.4606 27.2684 23.8658 26.7656 23.8658H26.4639V37.7413H26.7656C27.2677 37.7413 27.6747 38.1474 27.6747 38.6462C27.6747 39.146 27.2684 39.5511 26.7656 39.5511H26.4639V41.0616C26.4639 41.5601 26.0563 41.9643 25.5558 41.9643C25.0543 41.9643 24.6477 41.5578 24.6477 41.0616V39.5511H24.346C23.8439 39.5511 23.4369 39.145 23.4369 38.6462C23.4369 38.1464 23.8432 37.7413 24.346 37.7413H24.6477Z" fill="white"/>
<path fill-rule="evenodd" clip-rule="evenodd" d="M19.9804 26.551L32.0393 33.4887L32.1902 33.2284C32.4412 32.7951 32.9977 32.6469 33.4312 32.8963C33.8655 33.1462 34.0145 33.6994 33.7631 34.1333L33.6122 34.3936L34.9249 35.1489C35.3582 35.3981 35.5056 35.952 35.2554 36.3839C35.0046 36.8167 34.4481 36.9643 34.0168 36.7162L32.7041 35.961L32.5533 36.2214C32.3022 36.6547 31.7457 36.8028 31.3123 36.5535C30.8779 36.3036 30.729 35.7503 30.9804 35.3164L31.1312 35.0561L19.0723 28.1183L18.9214 28.3787C18.6704 28.812 18.1139 28.9602 17.6804 28.7108C17.2461 28.4609 17.0971 27.9077 17.3485 27.4738L17.4994 27.2134L16.1867 26.4582C15.7534 26.2089 15.606 25.6551 15.8562 25.2232C16.107 24.7904 16.6636 24.6427 17.0948 24.8908L18.4075 25.6461L18.5583 25.3857C18.8094 24.9524 19.3659 24.8042 19.7994 25.0536C20.2337 25.3035 20.3826 25.8567 20.1312 26.2906L19.9804 26.551Z" fill="white"/>
<path fill-rule="evenodd" clip-rule="evenodd" d="M32.0393 28.1184L19.9804 35.0561L20.1312 35.3165C20.3823 35.7498 20.2328 36.3041 19.7993 36.5535C19.365 36.8034 18.8097 36.6553 18.5583 36.2214L18.4075 35.961L17.0948 36.7162C16.6615 36.9655 16.1065 36.8158 15.8562 36.3839C15.6054 35.9511 15.7554 35.397 16.1866 35.1489L17.4994 34.3936L17.3485 34.1333C17.0975 33.7 17.2469 33.1457 17.6804 32.8963C18.1147 32.6464 18.67 32.7945 18.9214 33.2284L19.0723 33.4887L31.1312 26.551L30.9803 26.2906C30.7293 25.8573 30.8788 25.303 31.3122 25.0536C31.7466 24.8037 32.3019 24.9518 32.5533 25.3857L32.7041 25.6461L34.0168 24.8908C34.4501 24.6416 35.0051 24.7912 35.2554 25.2232C35.5061 25.656 35.3562 26.2101 34.9249 26.4582L33.6122 27.2134L33.7631 27.4738C34.0141 27.9071 33.8646 28.4614 33.4312 28.7108C32.9968 28.9607 32.4415 28.8126 32.1902 28.3787L32.0393 28.1184Z" fill="white"/>
</svg>
