<svg width="50" height="50" viewBox="0 0 50 50" fill="none" xmlns="http://www.w3.org/2000/svg">
<g clip-path="url(#clip0_106_279)">
<path fill-rule="evenodd" clip-rule="evenodd" d="M27.4902 38.6508C36.5035 38.6508 43.8102 31.3779 43.8102 22.4063C43.8102 13.4347 36.5035 6.16172 27.4902 6.16172C18.4769 6.16172 11.1702 13.4347 11.1702 22.4063C11.1702 31.3779 18.4769 38.6508 27.4902 38.6508ZM44.3729 22.4063C44.3729 31.6873 36.8143 39.211 27.4902 39.211C18.1661 39.211 10.6074 31.6873 10.6074 22.4063C10.6074 13.1253 18.1661 5.60156 27.4902 5.60156C36.8143 5.60156 44.3729 13.1253 44.3729 22.4063Z" fill="#FFF308" fill-opacity="0.2"/>
<path fill-rule="evenodd" clip-rule="evenodd" d="M27.3965 36.4102C35.2184 36.4102 41.5593 30.0986 41.5593 22.3129C41.5593 14.5272 35.2184 8.21563 27.3965 8.21563C19.5746 8.21563 13.2337 14.5272 13.2337 22.3129C13.2337 30.0986 19.5746 36.4102 27.3965 36.4102ZM42.3096 22.3129C42.3096 30.5111 35.6328 37.1571 27.3965 37.1571C19.1602 37.1571 12.4834 30.5111 12.4834 22.3129C12.4834 14.1147 19.1602 7.46875 27.3965 7.46875C35.6328 7.46875 42.3096 14.1147 42.3096 22.3129Z" fill="#FFF308" fill-opacity="0.6"/>
<path fill-rule="evenodd" clip-rule="evenodd" d="M27.3964 34.9164C34.3895 34.9164 40.0585 29.2736 40.0585 22.3129C40.0585 15.3521 34.3895 9.70935 27.3964 9.70935C20.4034 9.70935 14.7344 15.3521 14.7344 22.3129C14.7344 29.2736 20.4034 34.9164 27.3964 34.9164Z" fill="#FFEC65"/>
</g>
<path d="M30.9459 26.1441C30.9498 26.0261 30.9518 25.9077 30.9518 25.7888C30.9518 19.9882 26.2906 15.2859 20.5407 15.2859C15.9795 15.2859 12.1034 18.245 10.6957 22.364C9.68476 21.8318 8.53515 21.5309 7.31587 21.5309C3.27543 21.5309 0 24.8352 0 28.9113C0 32.9874 3.27543 36.2918 7.31587 36.2918L20.5407 36.2918C20.5454 36.2918 20.55 36.2918 20.5547 36.2918H28.4193C31.3719 36.2918 33.7655 33.8771 33.7655 30.8984C33.7655 28.8416 32.6243 27.0538 30.9459 26.1441Z" fill="white"/>
<path fill-rule="evenodd" clip-rule="evenodd" d="M12.5133 38.3491C12.0207 38.1898 11.4911 38.4597 11.3304 38.9519L8.13674 48.7355C7.97606 49.2277 8.24519 49.7559 8.73784 49.9152C9.23049 50.0745 9.76011 49.8047 9.92079 49.3125L13.1144 39.5289C13.2751 39.0366 13.006 38.5085 12.5133 38.3491ZM23.8024 38.3491C23.3098 38.1898 22.7801 38.4597 22.6195 38.9519L19.4258 48.7355C19.2651 49.2277 19.5342 49.7559 20.0269 49.9152C20.5196 50.0745 21.0492 49.8047 21.2099 49.3125L24.4035 39.5289C24.5642 39.0366 24.2951 38.5085 23.8024 38.3491ZM15.1068 38.9519C15.2674 38.4597 15.7971 38.1898 16.2897 38.3491C16.7824 38.5085 17.0515 39.0366 16.8908 39.5289L14.4694 46.9467C14.3087 47.4389 13.7791 47.7088 13.2865 47.5494C12.7938 47.3901 12.5247 46.8619 12.6854 46.3697L15.1068 38.9519ZM27.5319 38.3491C27.0392 38.1898 26.5096 38.4597 26.3489 38.9519L23.9276 46.3697C23.7669 46.8619 24.036 47.3901 24.5287 47.5494C25.0213 47.7088 25.5509 47.4389 25.7116 46.9467L28.133 39.5289C28.2937 39.0366 28.0245 38.5085 27.5319 38.3491ZM7.55402 38.9519C7.7147 38.4597 8.24432 38.1898 8.73697 38.3491C9.22963 38.5085 9.49875 39.0366 9.33807 39.5289L7.68894 44.5809C7.52827 45.0731 6.99865 45.343 6.50599 45.1836C6.01334 45.0243 5.74422 44.4961 5.90489 44.0039L7.55402 38.9519ZM20.0661 38.3491C19.5734 38.1898 19.0438 38.4597 18.8831 38.9519L17.234 44.0039C17.0733 44.4961 17.3424 45.0243 17.8351 45.1836C18.3277 45.343 18.8574 45.0731 19.018 44.5809L20.6672 39.5289C20.8278 39.0366 20.5587 38.5085 20.0661 38.3491Z" fill="#B4F5F2"/>
<defs>
<clipPath id="clip0_106_279">
<rect width="33.7655" height="33.6094" fill="white" transform="translate(10.6074 5.60156)"/>
</clipPath>
</defs>
</svg>
