<svg width="50" height="50" viewBox="0 0 50 50" fill="none" xmlns="http://www.w3.org/2000/svg">
<path fill-rule="evenodd" clip-rule="evenodd" d="M25 49.1667C38.3469 49.1667 49.1667 38.3469 49.1667 25C49.1667 11.6531 38.3469 0.833333 25 0.833333C11.6531 0.833333 0.833333 11.6531 0.833333 25C0.833333 38.3469 11.6531 49.1667 25 49.1667ZM50 25C50 38.8071 38.8071 50 25 50C11.1929 50 0 38.8071 0 25C0 11.1929 11.1929 0 25 0C38.8071 0 50 11.1929 50 25Z" fill="#FFF308" fill-opacity="0.2"/>
<path fill-rule="evenodd" clip-rule="evenodd" d="M24.8612 45.8334C36.4438 45.8334 45.8334 36.4438 45.8334 24.8612C45.8334 13.2785 36.4438 3.88894 24.8612 3.88894C13.2785 3.88894 3.88894 13.2785 3.88894 24.8612C3.88894 36.4438 13.2785 45.8334 24.8612 45.8334ZM46.9445 24.8612C46.9445 37.0575 37.0575 46.9445 24.8612 46.9445C12.6649 46.9445 2.77783 37.0575 2.77783 24.8612C2.77783 12.6649 12.6649 2.77783 24.8612 2.77783C37.0575 2.77783 46.9445 12.6649 46.9445 24.8612Z" fill="#FFF308" fill-opacity="0.6"/>
<path fill-rule="evenodd" clip-rule="evenodd" d="M24.8611 43.6111C35.2164 43.6111 43.6111 35.2164 43.6111 24.8611C43.6111 14.5057 35.2164 6.11108 24.8611 6.11108C14.5057 6.11108 6.11108 14.5057 6.11108 24.8611C6.11108 35.2164 14.5057 43.6111 24.8611 43.6111Z" fill="#FFEC65"/>
</svg>
