<svg width="50" height="50" viewBox="0 0 50 50" fill="none" xmlns="http://www.w3.org/2000/svg">
<path fill-rule="evenodd" clip-rule="evenodd" d="M45.8334 15.1351C45.8334 15.3065 45.8305 15.4771 45.8247 15.647C48.3101 16.958 50 19.5343 50 22.4982C50 26.2336 47.3158 29.3535 43.7377 30.1003L46.2183 25.6191C46.6266 24.9608 46.1532 24.1099 45.3785 24.1099H45.1679H43.7273C43.0237 24.1099 42.5401 23.4026 42.7955 22.747L44.4031 18.6201C44.7048 17.8704 44.1529 17.0534 43.3448 17.0534H43.2326H34.7979H34.7342C34.2037 17.0534 33.7373 17.4045 33.5906 17.9143L30.1543 29.8616L30.0367 30.2703L10.8333 30.2703C4.85025 30.2703 0 25.5086 0 19.6348C0 13.7609 4.85025 8.99926 10.8333 8.99926C12.6388 8.99926 14.3412 9.43288 15.8382 10.1998C17.9227 4.26413 23.6625 0 30.4167 0C38.9311 0 45.8334 6.77623 45.8334 15.1351Z" fill="white"/>
<path fill-rule="evenodd" clip-rule="evenodd" d="M24.1203 33.2352C23.3908 33.0055 22.6022 33.4072 22.359 34.1323L18.7925 44.7645C18.5493 45.4896 18.9435 46.2635 19.6731 46.4931C20.4026 46.7227 21.1911 46.3211 21.4344 45.596L25.0008 34.9638C25.244 34.2387 24.8498 33.4648 24.1203 33.2352ZM18.5275 33.2352C17.798 33.0055 17.0094 33.4072 16.7662 34.1323L12.0562 48.1737C11.813 48.8988 12.2072 49.6727 12.9367 49.9023C13.6662 50.1319 14.4548 49.7302 14.698 49.0052L19.408 34.9638C19.6512 34.2387 19.257 33.4648 18.5275 33.2352ZM11.1744 34.1323C11.4176 33.4072 12.2062 33.0055 12.9357 33.2352C13.6652 33.4648 14.0594 34.2387 13.8162 34.9638L11.3934 42.1868C11.1501 42.9119 10.3616 43.3135 9.63206 43.0839C8.90254 42.8543 8.50832 42.0804 8.75154 41.3553L11.1744 34.1323ZM29.7121 33.2352C28.9825 33.0055 28.194 33.4072 27.9508 34.1323L25.5279 41.3553C25.2847 42.0804 25.6789 42.8543 26.4084 43.0839C27.138 43.3135 27.9265 42.9119 28.1697 42.1868L30.5926 34.9638C30.8358 34.2387 30.4416 33.4648 29.7121 33.2352Z" fill="#B4F5F2"/>
<path fill-rule="evenodd" clip-rule="evenodd" d="M35.4802 18.6471C35.2289 18.6471 35.0089 18.8106 34.9437 19.0457L32.0242 29.5789C31.9294 29.9207 32.1953 30.2565 32.5607 30.2565H36.48C36.8115 30.2565 37.0693 30.536 37.032 30.8551L35.9835 39.8431C35.914 40.4385 36.7499 40.6817 37.0306 40.1478L44.3253 26.2731C44.5135 25.915 44.245 25.4907 43.8302 25.4907H40.6264C40.2324 25.4907 39.9636 25.1046 40.1114 24.7508L42.351 19.387C42.4987 19.0332 42.2299 18.6471 41.8359 18.6471H35.4802Z" fill="#FFF686"/>
</svg>
