<svg width="35" height="34" viewBox="0 0 35 34" fill="none" xmlns="http://www.w3.org/2000/svg">
<path fill-rule="evenodd" clip-rule="evenodd" d="M17.0322 2.71279C15.2248 1.02482 12.8471 0 10.2423 0C4.58565 0 0 4.83319 0 10.7952C0 13.5406 0.959076 16.0606 2.56058 17.9656L17.0454 33.2324L31.1015 18.4175L31.517 17.9516C33.1186 16.0467 34.0909 13.5406 34.0909 10.7952C34.0909 4.83319 29.5053 0 23.8486 0C21.2438 0 18.8661 1.02483 17.0587 2.7128L17.0454 2.69882L17.0322 2.71279ZM17.0455 6.74593L17.1493 6.84294L18.7649 5.1401L18.9333 4.98282C20.2401 3.76244 21.9569 3.02112 23.8486 3.02112C27.9602 3.02112 31.25 6.52709 31.25 10.7952C31.25 12.7517 30.5654 14.5364 29.4247 15.9075L29.0705 16.3046L17.0454 28.9788L4.62639 15.8893C3.51123 14.5333 2.84091 12.7509 2.84091 10.7952C2.84091 6.52709 6.13067 3.02112 10.2423 3.02112C12.134 3.02112 13.8508 3.76243 15.1576 4.98281L15.3259 5.14L16.9416 6.84289L17.0455 6.74593Z" fill="#DFF6FF"/>
</svg>
