<svg width="66" height="67" viewBox="0 0 66 67" fill="none" xmlns="http://www.w3.org/2000/svg">
<path fill-rule="evenodd" clip-rule="evenodd" d="M44.5 26.0866C44.5 36.5216 36.1053 44.9808 25.75 44.9808C15.3947 44.9808 7 36.5216 7 26.0866C7 15.6516 15.3947 7.19236 25.75 7.19236C36.1053 7.19236 44.5 15.6516 44.5 26.0866ZM41.0803 45.988C36.8469 49.3042 31.5273 51.2789 25.75 51.2789C11.9429 51.2789 0.75 39.9999 0.75 26.0866C0.75 12.1733 11.9429 0.894287 25.75 0.894287C39.5571 0.894287 50.75 12.1733 50.75 26.0866C50.75 31.9082 48.7904 37.2686 45.4997 41.5345L65.4599 61.6483L61.0405 66.1018L41.0803 45.988Z" fill="#DFF6FF"/>
</svg>
