<svg width="213" height="32" viewBox="0 0 213 32" fill="none" xmlns="http://www.w3.org/2000/svg">
<path d="M1.04 24C0.805334 24 0.613334 23.9253 0.464 23.776C0.314667 23.6267 0.24 23.4347 0.24 23.2V2.4C0.24 2.16533 0.314667 1.97333 0.464 1.824C0.613334 1.67467 0.805334 1.6 1.04 1.6H5.264C5.47733 1.6 5.65867 1.67467 5.808 1.824C5.97867 1.97333 6.064 2.16533 6.064 2.4V19.168H15.728C15.9627 19.168 16.1547 19.2533 16.304 19.424C16.4747 19.5733 16.56 19.7653 16.56 20V23.2C16.56 23.4347 16.4747 23.6267 16.304 23.776C16.1547 23.9253 15.9627 24 15.728 24H1.04ZM19.7818 24C19.5471 24 19.3551 23.9253 19.2057 23.776C19.0564 23.6267 18.9818 23.4347 18.9818 23.2V8.16C18.9818 7.92533 19.0564 7.73333 19.2057 7.584C19.3551 7.43467 19.5471 7.36 19.7818 7.36H23.5578C23.7711 7.36 23.9524 7.43467 24.1018 7.584C24.2724 7.73333 24.3578 7.92533 24.3578 8.16V23.2C24.3578 23.4347 24.2724 23.6267 24.1018 23.776C23.9524 23.9253 23.7711 24 23.5578 24H19.7818ZM19.7498 4.96C19.5151 4.96 19.3231 4.88533 19.1738 4.736C19.0244 4.58667 18.9498 4.39467 18.9498 4.16V1.312C18.9498 1.07733 19.0244 0.885332 19.1738 0.735998C19.3231 0.565332 19.5151 0.48 19.7498 0.48H23.5578C23.7924 0.48 23.9844 0.565332 24.1338 0.735998C24.3044 0.885332 24.3898 1.07733 24.3898 1.312V4.16C24.3898 4.39467 24.3044 4.58667 24.1338 4.736C23.9844 4.88533 23.7924 4.96 23.5578 4.96H19.7498ZM36.2668 31.04C34.6241 31.04 33.2588 30.8267 32.1708 30.4C31.1041 29.9733 30.2508 29.4613 29.6108 28.864C28.9921 28.2667 28.5441 27.6693 28.2668 27.072C27.9894 26.496 27.8401 26.0373 27.8188 25.696C27.7974 25.4613 27.8721 25.2693 28.0428 25.12C28.2134 24.9707 28.4161 24.896 28.6508 24.896H32.7148C32.9068 24.896 33.0668 24.9387 33.1948 25.024C33.3441 25.1307 33.4614 25.3013 33.5468 25.536C33.6534 25.7707 33.7921 26.016 33.9628 26.272C34.1548 26.528 34.4108 26.7307 34.7308 26.88C35.0721 27.0507 35.5308 27.136 36.1068 27.136C36.7468 27.136 37.2801 27.0293 37.7068 26.816C38.1334 26.624 38.4534 26.2933 38.6668 25.824C38.8801 25.376 38.9868 24.768 38.9868 24V21.856C38.4961 22.3893 37.8668 22.8267 37.0988 23.168C36.3308 23.488 35.4028 23.648 34.3148 23.648C33.2268 23.648 32.2668 23.488 31.4348 23.168C30.6028 22.848 29.9094 22.368 29.3548 21.728C28.8001 21.088 28.3628 20.3093 28.0428 19.392C27.7441 18.4747 27.5628 17.4187 27.4988 16.224C27.4774 15.6693 27.4774 15.1147 27.4988 14.56C27.5628 13.408 27.7441 12.3733 28.0428 11.456C28.3414 10.5387 28.7681 9.74933 29.3228 9.088C29.8988 8.42667 30.6028 7.92533 31.4348 7.584C32.2668 7.22133 33.2268 7.04 34.3148 7.04C35.4668 7.04 36.4481 7.264 37.2588 7.712C38.0908 8.13867 38.7734 8.68267 39.3068 9.344V8.16C39.3068 7.94667 39.3814 7.76533 39.5308 7.616C39.6801 7.44533 39.8721 7.36 40.1068 7.36H43.7868C44.0214 7.36 44.2134 7.44533 44.3628 7.616C44.5334 7.76533 44.6188 7.94667 44.6188 8.16V23.552C44.6188 25.1733 44.2881 26.5387 43.6268 27.648C42.9654 28.7573 42.0161 29.6 40.7788 30.176C39.5414 30.752 38.0374 31.04 36.2668 31.04ZM36.0428 19.488C36.7254 19.488 37.2801 19.3387 37.7068 19.04C38.1334 18.7413 38.4428 18.3573 38.6348 17.888C38.8481 17.4187 38.9654 16.9173 38.9868 16.384C39.0081 16.1493 39.0188 15.8187 39.0188 15.392C39.0188 14.9653 39.0081 14.6453 38.9868 14.432C38.9654 13.8773 38.8481 13.3653 38.6348 12.896C38.4428 12.4267 38.1334 12.0533 37.7068 11.776C37.2801 11.4773 36.7254 11.328 36.0428 11.328C35.3388 11.328 34.7734 11.4773 34.3468 11.776C33.9414 12.0747 33.6428 12.48 33.4508 12.992C33.2801 13.504 33.1734 14.0693 33.1308 14.688C33.1094 15.1573 33.1094 15.6373 33.1308 16.128C33.1734 16.7467 33.2801 17.312 33.4508 17.824C33.6428 18.336 33.9414 18.7413 34.3468 19.04C34.7734 19.3387 35.3388 19.488 36.0428 19.488ZM49.188 24C48.9533 24 48.7613 23.9253 48.612 23.776C48.4627 23.6267 48.388 23.4347 48.388 23.2V2.08C48.388 1.84533 48.4627 1.65333 48.612 1.504C48.7613 1.35467 48.9533 1.28 49.188 1.28H53.284C53.5187 1.28 53.7107 1.35467 53.86 1.504C54.0093 1.65333 54.084 1.84533 54.084 2.08V9.216C54.66 8.55467 55.364 8.032 56.196 7.648C57.0493 7.24267 58.0307 7.04 59.14 7.04C60.3773 7.04 61.476 7.31733 62.436 7.872C63.4173 8.42667 64.1853 9.248 64.74 10.336C65.2947 11.4027 65.572 12.7147 65.572 14.272V23.2C65.572 23.4347 65.4973 23.6267 65.348 23.776C65.1987 23.9253 65.0067 24 64.772 24H60.644C60.4307 24 60.2387 23.9253 60.068 23.776C59.9187 23.6267 59.844 23.4347 59.844 23.2V14.464C59.844 13.4613 59.5987 12.6933 59.108 12.16C58.6387 11.6053 57.9347 11.328 56.996 11.328C56.1213 11.328 55.4173 11.6053 54.884 12.16C54.3507 12.6933 54.084 13.4613 54.084 14.464V23.2C54.084 23.4347 54.0093 23.6267 53.86 23.776C53.7107 23.9253 53.5187 24 53.284 24H49.188ZM77.5563 24C76.1909 24 75.0069 23.7867 74.0043 23.36C73.0229 22.912 72.2656 22.2293 71.7323 21.312C71.1989 20.3733 70.9323 19.168 70.9323 17.696V11.552H68.4363C68.2016 11.552 67.9989 11.4773 67.8283 11.328C67.6789 11.1787 67.6043 10.9867 67.6043 10.752V8.16C67.6043 7.92533 67.6789 7.73333 67.8283 7.584C67.9989 7.43467 68.2016 7.36 68.4363 7.36H70.9323V2.08C70.9323 1.84533 71.0069 1.65333 71.1562 1.504C71.3269 1.35467 71.5189 1.28 71.7323 1.28H75.4443C75.6789 1.28 75.8709 1.35467 76.0203 1.504C76.1696 1.65333 76.2443 1.84533 76.2443 2.08V7.36H80.2443C80.4789 7.36 80.6709 7.43467 80.8203 7.584C80.9696 7.73333 81.0443 7.92533 81.0443 8.16V10.752C81.0443 10.9867 80.9696 11.1787 80.8203 11.328C80.6709 11.4773 80.4789 11.552 80.2443 11.552H76.2443V17.248C76.2443 17.9733 76.3829 18.5493 76.6603 18.976C76.9376 19.4027 77.4069 19.616 78.0683 19.616H80.5323C80.7669 19.616 80.9589 19.6907 81.1083 19.84C81.2576 19.9893 81.3323 20.1813 81.3323 20.416V23.2C81.3323 23.4347 81.2576 23.6267 81.1083 23.776C80.9589 23.9253 80.7669 24 80.5323 24H77.5563Z" fill="#47B5FF"/>
<path d="M90.9578 24L83.0538 1.44H86.5098L93.0698 20.928H91.8858L98.8298 1.44H101.358L107.886 20.928H106.798L113.582 1.44H116.846L108.878 24H106.03L99.6938 5.44H100.366L93.7738 24H90.9578ZM125.699 24.288C123.096 24.288 121.048 23.552 119.555 22.08C118.062 20.608 117.315 18.5707 117.315 15.968C117.315 14.2827 117.635 12.8107 118.275 11.552C118.936 10.2933 119.843 9.32267 120.995 8.64C122.168 7.936 123.523 7.584 125.059 7.584C126.574 7.584 127.843 7.904 128.867 8.544C129.891 9.184 130.67 10.0907 131.203 11.264C131.736 12.416 132.003 13.7813 132.003 15.36V16.384H119.843V14.528H129.795L129.251 14.944C129.251 13.344 128.888 12.1067 128.163 11.232C127.459 10.336 126.435 9.888 125.091 9.888C123.598 9.888 122.446 10.4107 121.635 11.456C120.824 12.48 120.419 13.8987 120.419 15.712V16.032C120.419 17.9307 120.878 19.36 121.795 20.32C122.734 21.28 124.056 21.76 125.763 21.76C126.702 21.76 127.576 21.632 128.387 21.376C129.219 21.0987 130.008 20.6507 130.755 20.032L131.811 22.24C131.064 22.9013 130.158 23.4133 129.091 23.776C128.024 24.1173 126.894 24.288 125.699 24.288ZM141.888 24.288C140.458 24.288 139.21 23.9573 138.144 23.296C137.077 22.6347 136.245 21.6747 135.648 20.416C135.072 19.1573 134.784 17.664 134.784 15.936C134.784 14.1867 135.072 12.6933 135.648 11.456C136.245 10.2187 137.077 9.26933 138.144 8.608C139.21 7.92533 140.458 7.584 141.888 7.584C143.296 7.584 144.522 7.936 145.568 8.64C146.613 9.344 147.306 10.304 147.648 11.52H147.296L147.616 7.872H150.752C150.688 8.53333 150.624 9.19467 150.56 9.856C150.517 10.496 150.496 11.1253 150.496 11.744V24H147.264V20.416H147.616C147.274 21.6107 146.57 22.56 145.504 23.264C144.458 23.9467 143.253 24.288 141.888 24.288ZM142.688 21.76C144.074 21.76 145.184 21.2693 146.016 20.288C146.869 19.3067 147.296 17.856 147.296 15.936C147.296 14.016 146.869 12.576 146.016 11.616C145.184 10.6347 144.074 10.144 142.688 10.144C141.28 10.144 140.149 10.6347 139.296 11.616C138.464 12.576 138.048 14.016 138.048 15.936C138.048 17.856 138.464 19.3067 139.296 20.288C140.128 21.2693 141.258 21.76 142.688 21.76ZM161.484 24.288C159.734 24.288 158.412 23.8187 157.516 22.88C156.62 21.92 156.172 20.4907 156.172 18.592V10.368H153.036V7.872H156.172V3.616L159.404 2.752V7.872H163.884V10.368H159.404V18.304C159.404 19.4987 159.617 20.352 160.044 20.864C160.47 21.376 161.089 21.632 161.9 21.632C162.305 21.632 162.657 21.6 162.956 21.536C163.276 21.4507 163.564 21.3547 163.82 21.248V23.872C163.5 24 163.126 24.096 162.7 24.16C162.273 24.2453 161.868 24.288 161.484 24.288ZM166.837 24V0.447998H170.069V11.296H169.621C170.09 10.08 170.847 9.16267 171.893 8.544C172.938 7.904 174.143 7.584 175.509 7.584C177.429 7.584 178.858 8.11733 179.797 9.184C180.735 10.2293 181.205 11.8187 181.205 13.952V24H177.973V14.144C177.973 12.7573 177.695 11.7547 177.141 11.136C176.607 10.496 175.754 10.176 174.581 10.176C173.215 10.176 172.117 10.6027 171.285 11.456C170.474 12.288 170.069 13.3973 170.069 14.784V24H166.837ZM193.262 24.288C190.659 24.288 188.611 23.552 187.118 22.08C185.624 20.608 184.878 18.5707 184.878 15.968C184.878 14.2827 185.198 12.8107 185.838 11.552C186.499 10.2933 187.406 9.32267 188.558 8.64C189.731 7.936 191.086 7.584 192.622 7.584C194.136 7.584 195.406 7.904 196.43 8.544C197.454 9.184 198.232 10.0907 198.766 11.264C199.299 12.416 199.566 13.7813 199.566 15.36V16.384H187.406V14.528H197.358L196.814 14.944C196.814 13.344 196.451 12.1067 195.726 11.232C195.022 10.336 193.998 9.888 192.654 9.888C191.16 9.888 190.008 10.4107 189.198 11.456C188.387 12.48 187.982 13.8987 187.982 15.712V16.032C187.982 17.9307 188.44 19.36 189.358 20.32C190.296 21.28 191.619 21.76 193.326 21.76C194.264 21.76 195.139 21.632 195.95 21.376C196.782 21.0987 197.571 20.6507 198.318 20.032L199.374 22.24C198.627 22.9013 197.72 23.4133 196.654 23.776C195.587 24.1173 194.456 24.288 193.262 24.288ZM203.21 24V11.872C203.21 11.2107 203.189 10.5493 203.146 9.888C203.125 9.20533 203.082 8.53333 203.018 7.872H206.154L206.506 12.032H205.994C206.208 11.0293 206.57 10.1973 207.082 9.536C207.594 8.87467 208.213 8.384 208.938 8.064C209.685 7.744 210.464 7.584 211.274 7.584C211.616 7.584 211.904 7.60533 212.138 7.648C212.373 7.66933 212.608 7.712 212.842 7.776L212.81 10.656C212.448 10.5067 212.128 10.4213 211.85 10.4C211.594 10.3573 211.274 10.336 210.89 10.336C209.952 10.336 209.152 10.5493 208.49 10.976C207.829 11.3813 207.328 11.936 206.986 12.64C206.645 13.344 206.474 14.1013 206.474 14.912V24H203.21Z" fill="#1363DF"/>
</svg>
